HIERARCHY
ROOT root     
{
	OFFSET 0.0000 0.0000 0.0000
	CHANNELS 6 Xposition Yposition Zposition Zrotation Yrotation Xrotation
	JOINT pelvis   
	{
		OFFSET 0.0000 0.0000 0.0000
		CHANNELS 3 Zrotation Yrotation Xrotation
		JOINT thorax   
		{
			OFFSET 0.0000 23.0750 -5.0000
			CHANNELS 3 Zrotation Yrotation Xrotation
			JOINT rclavicle
			{
				OFFSET 0.0000 28.0009 0.0000
				CHANNELS 3 Zrotation Yrotation Xrotation
				JOINT rhumerus 
				{
					OFFSET -18.5725 5.5939 0.0000
					CHANNELS 3 Zrotation Yrotation Xrotation
					JOINT rradius  
					{
						OFFSET -24.8459 0.0000 0.0000
						CHANNELS 3 Zrotation Yrotation Xrotation
						JOINT rhand    
						{
							OFFSET -24.5477 0.0000 0.0000
							CHANNELS 3 Zrotation Yrotation Xrotation
							End Site
							{
								OFFSET -8.1826 0.0000 0.0000
							}
						}
					}
				}
			}
			JOINT lclavicle
			{
				OFFSET 0.0000 28.0009 0.0000
				CHANNELS 3 Zrotation Yrotation Xrotation
				JOINT lhumerus 
				{
					OFFSET 18.5725 5.5939 0.0000
					CHANNELS 3 Zrotation Yrotation Xrotation
					JOINT lradius  
					{
						OFFSET 24.8459 0.0000 0.0000
						CHANNELS 3 Zrotation Yrotation Xrotation
						JOINT lhand    
						{
							OFFSET 24.5477 0.0000 0.0000
							CHANNELS 3 Zrotation Yrotation Xrotation
							End Site
							{
								OFFSET 8.1826 0.0000 0.0000
							}
						}
					}
				}
			}
			JOINT head     
			{
				OFFSET 0.0000 35.2030 0.0000
				CHANNELS 3 Zrotation Yrotation Xrotation
				End Site
				{
					OFFSET 0.0000 11.7343 0.0000
				}
			}
		}
		JOINT rfemur   
		{
			OFFSET -8.2817 0.0000 0.0000
			CHANNELS 3 Zrotation Yrotation Xrotation
			JOINT rtibia   
			{
				OFFSET 0.0000 -43.3627 0.0000
				CHANNELS 3 Zrotation Yrotation Xrotation
				JOINT rfoot    
				{
					OFFSET 0.0000 -38.2947 0.0000
					CHANNELS 3 Zrotation Yrotation Xrotation
					JOINT rtoes    
					{
						OFFSET 0.0000 0.0000 16.6054
						CHANNELS 3 Zrotation Yrotation Xrotation
						End Site
						{
							OFFSET 0.0000 0.0000 5.5351
						}
					}
				}
			}
		}
		JOINT lfemur   
		{
			OFFSET 8.2817 0.0000 0.0000
			CHANNELS 3 Zrotation Yrotation Xrotation
			JOINT ltibia   
			{
				OFFSET 0.0000 -43.3627 0.0000
				CHANNELS 3 Zrotation Yrotation Xrotation
				JOINT lfoot    
				{
					OFFSET 0.0000 -38.2947 0.0000
					CHANNELS 3 Zrotation Yrotation Xrotation
					JOINT ltoes    
					{
						OFFSET 0.0000 0.0000 16.6054
						CHANNELS 3 Zrotation Yrotation Xrotation
						End Site
						{
							OFFSET 0.0000 0.0000 5.5351
						}
					}
				}
			}
		}
	}
}
MOTION
Frames: 15
Frame Time: .0333333
159.41 84.789 17.869 68.0986 -86.4637 -45.9592 0 -0 0 -8.55783 -2.95054 -10.7182 29.9229 -8.5945 2.8633e-05 45.2854 12.1902 31.2172 -0 77.704 -0 4.6054 7.74299 0.311791 -25.0131 15.1281 3.5015e-05 -43.1469 12.2463 5.4662 7.08704e-07 -69.8303 -1.0153e-06 7.65787 -1.72197 -0.115295 -5.68548 -8.1932 -13.4522 -4.21453 -7.5021 -2.7464 -0 -0 27.8661 -3.49496e-05 5.48468 28.9365 2.65991 -2.79237e-05 -94.0947 -2.80394 -2.66891 -39.8838 -0 -0 28.4196 2.75935e-06 8.40163 2.04662 0.302208 2.65811e-06 -30.1809 
158.37 84.778 17.96 69.5455 -86.3521 -47.5341 0 -0 0 -9.10832 -2.93363 -10.818 30.0828 -8.62879 -2.73025e-05 45.8151 11.6826 30.7541 -1.19633e-06 77.1433 -1.5001e-06 4.39348 7.66315 0.294406 -25.1554 15.1168 0.00014479 -42.5674 11.7181 6.11624 -9.89894e-07 -69.2091 6.83e-07 7.72181 -1.76066 -0.1188 -5.1243 -7.80091 -13.2769 -4.52131 -7.97661 -2.94702 -0 -0 29.1896 2.92204e-05 5.77616 30.5528 2.94357 -1.33809e-05 -93.4003 -3.0637 -2.59661 -39.2287 -0 -0 28.8173 2.55715e-06 8.50041 1.60256 0.239505 1.16253e-07 -29.4505 
157.32 84.789 18.054 71.4188 -86.2556 -49.547 0 -0 0 -9.63848 -2.88209 -10.906 30.2174 -8.66217 -4.46341e-05 46.376 11.1742 30.2616 -1.6047e-06 76.5271 -2.03455e-06 4.11172 7.54991 0.271402 -25.3047 15.0917 4.8195e-05 -42.0419 11.1437 6.74166 6.57513e-07 -68.5513 -9.64741e-07 7.76138 -1.80829 -0.122702 -4.60158 -7.41264 -13.0761 -4.8411 -8.44092 -3.20049 -0 -0 30.5761 5.83513e-06 6.01643 32.1928 3.21386 -4.18213e-05 -92.004 -3.31829 -2.54049 -38.4417 -0 -0 29.0008 -3.14055e-07 8.60014 1.05451 0.159501 -6.01422e-07 -28.9574 
156.28 84.819 18.144 73.4991 -86.1815 -51.7685 0 -0 0 -10.1032 -2.79766 -10.9987 30.3193 -8.68806 -1.03633e-05 46.9439 10.6654 29.7509 -0 75.8714 -0 3.77841 7.4148 0.244893 -25.4671 15.0574 0.000127089 -41.5808 10.5379 7.33018 -9.40339e-07 -67.8734 6.32764e-07 7.77668 -1.86249 -0.126598 -4.12656 -7.01686 -12.8417 -5.13089 -8.86143 -3.50782 -0 -0 31.9995 5.62432e-05 6.14043 33.7766 3.42293 -5.44447e-05 -89.9143 -3.53527 -2.48769 -37.5603 -0 -0 29.0063 -2.37871e-08 8.68905 0.432796 0.0660992 3.71277e-09 -28.6911 
155.23 84.865 18.236 75.9652 -86.1434 -54.3923 0 -0 0 -10.5259 -2.68872 -11.0841 30.4015 -8.71399 5.46829e-05 47.4899 10.1794 29.2464 -0 75.189 -0 3.40829 7.27219 0.216698 -25.6288 15.0171 4.17381e-05 -41.2035 9.91232 7.86687 -9.17149e-07 -67.1871 6.09209e-07 7.76842 -1.9232 -0.130603 -3.68501 -6.60471 -12.576 -5.41772 -9.25446 -3.84642 -0 -0 33.448 1.59215e-05 6.12317 35.2084 3.53931 1.39217e-05 -87.2559 -3.72866 -2.45989 -36.569 -0 -0 28.8379 -7.06845e-08 8.79235 -0.218203 -0.0337003 -6.98963e-08 -28.611 
154.19 84.923 18.323 78.6344 -86.1481 -57.2256 0 -0 0 -10.8683 -2.56413 -11.1769 30.4587 -8.73487 1.04992e-05 47.9927 9.71308 28.7549 -9.66376e-07 74.4914 -1.27102e-06 3.03282 7.13519 0.189103 -25.796 14.9807 -1.18149e-05 -40.912 9.2762 8.3444 0 -66.5071 0 7.74087 -1.98693 -0.134402 -3.27871 -6.16578 -12.2754 -5.66225 -9.59774 -4.21869 -0 -0 34.9005 2.36149e-05 5.89196 36.4022 3.5045 -4.31208e-06 -84.1725 -3.87386 -2.4395 -35.5073 -0 -0 28.5412 -8.26786e-07 8.90435 -0.866114 -0.135698 -2.41731e-07 -28.6759 
153.14 84.99 18.407 81.6562 -86.149 -60.4232 0 -0 0 -11.1474 -2.43576 -11.2643 30.5016 -8.75834 8.6801e-05 48.4301 9.28563 28.2966 -0 73.7971 -0 2.67377 7.01574 0.163898 -25.9597 14.9477 -6.74211e-05 -40.7121 8.64209 8.74903 0 -65.8446 0 7.69893 -2.05204 -0.138106 -2.89189 -5.69505 -11.9397 -5.88088 -9.90486 -4.60602 -0 -0 36.3408 -3.57649e-05 5.41469 37.2839 3.28618 3.74863e-05 -80.9547 -3.98492 -2.43395 -34.3724 -0 -0 28.1298 -1.3994e-06 9.04484 -1.47371 -0.2346 2.26192e-07 -28.8322 
152.09 85.066 18.484 84.8141 -86.2121 -63.7638 0 -0 0 -11.3337 -2.31629 -11.3583 30.5287 -8.78123 -5.16561e-06 48.7885 8.89097 27.8712 -0 73.1137 -0 2.36342 6.92152 0.143001 -26.1289 14.9278 -0.00010235 -40.6005 8.01265 9.07903 7.76057e-07 -65.2145 -1.21314e-06 7.65063 -2.11431 -0.141402 -2.52212 -5.187 -11.5667 -6.04003 -10.1645 -5.01632 -0 -0 37.7556 2.66179e-05 4.64548 37.7952 2.85082 7.18947e-05 -77.7383 -4.04582 -2.41985 -33.2026 -0 -0 27.6493 -3.33448e-06 9.20546 -2.01919 -0.327196 2.78738e-06 -29.0428 
151.04 85.148 18.555 88.1947 -86.2898 -67.336 0 -0 0 -11.4422 -2.21724 -11.4468 30.5462 -8.80778 -1.42156e-05 49.0584 8.53755 27.4823 -8.36321e-07 72.4446 -1.14175e-06 2.12057 6.85664 0.127099 -26.2982 14.9176 -7.63003e-05 -40.5725 7.3986 9.32543 0 -64.6312 0 7.60278 -2.17143 -0.144304 -2.15455 -4.64209 -11.1616 -6.15235 -10.3893 -5.43545 -0 -0 39.1278 1.69088e-05 3.58295 37.9077 2.20307 -6.39077e-05 -74.8375 -4.07169 -2.39288 -31.9949 -0 -0 27.1115 1.15045e-06 9.39181 -2.48175 -0.410405 -1.30783e-06 -29.2728 
149.98 85.234 18.616 91.6861 -86.4053 -71.0186 0 -0 0 -11.4573 -2.1503 -11.539 30.5514 -8.83853 -3.2425e-06 49.2383 8.22017 27.1218 -0 71.8036 -0 1.96354 6.82075 0.117002 -26.4748 14.9231 5.50884e-05 -40.6178 6.79869 9.49182 5.18647e-07 -64.1017 -8.28377e-07 7.56422 -2.21953 -0.146699 -1.78526 -4.06167 -10.7237 -6.19577 -10.5787 -5.87668 -0 -0 40.4513 -8.41894e-06 2.23956 37.5995 1.36691 1.03806e-05 -72.1984 -4.05528 -2.32882 -30.7808 -0 -0 26.5484 6.0616e-06 9.5871 -2.8555 -0.482093 2.13484e-07 -29.5045 
148.93 85.324 18.668 95.3266 -86.5455 -74.8528 0 -0 0 -11.3886 -2.1231 -11.6268 30.5489 -8.87396 5.43584e-05 49.3269 7.93842 26.778 -1.07689e-06 71.1945 -7.70913e-07 1.89711 6.80971 0.112901 -26.6549 14.9405 -8.71371e-05 -40.7275 6.21908 9.57615 0 -63.6358 0 7.5421 -2.2574 -0.148803 -1.40403 -3.45144 -10.2588 -6.17942 -10.745 -6.33226 -0 -0 41.709 -2.63324e-06 0.661196 36.8875 0.396901 -4.43297e-06 -70.0054 -4.00916 -2.21671 -29.5646 -0 -0 25.9683 8.01401e-06 9.7813 -3.13772 -0.540697 -2.86914e-06 -29.7359 
147.88 85.417 18.712 99.1098 -86.7031 -78.8302 0 -0 0 -11.243 -2.14194 -11.705 30.5397 -8.91396 -3.43e-05 49.3298 7.68521 26.4319 -1.05004e-06 70.6259 -7.4382e-07 1.91881 6.81586 0.114301 -26.839 14.9652 0.000185142 -40.8907 5.65836 9.58442 -8.07321e-07 -63.2401 4.97049e-07 7.5429 -2.28326 -0.150494 -1.00487 -2.81843 -9.77135 -6.10354 -10.8973 -6.80481 -0 -0 42.892 2.38965e-07 -1.08611 35.7935 -0.635285 3.78255e-06 -68.1671 -3.93792 -2.04222 -28.3549 -0 -0 25.3806 3.64359e-06 9.95459 -3.33537 -0.585003 -3.86506e-06 -29.9735 
146.84 85.51 18.746 103.033 -86.8669 -82.9381 0 -0 0 -11.0229 -2.21093 -11.7823 30.5217 -8.96147 -3.38184e-05 49.2577 7.45929 26.0698 -0 70.097 -0 2.0146 6.83151 0.1203 -27.0274 14.9961 -3.63488e-05 -41.0944 5.11798 9.52368 -7.99864e-07 -62.92 4.89383e-07 7.57238 -2.29659 -0.151999 -0.584907 -2.17086 -9.26486 -5.97035 -11.042 -7.30486 -0 -0 43.9865 -1.00743e-06 -2.92627 34.3675 -1.65285 3.29459e-05 -66.6441 -3.84493 -1.79671 -27.1667 -0 -0 24.7921 -2.40933e-08 10.0885 -3.45869 -0.615002 -3.56769e-06 -30.2297 
145.74 85.609 18.833 122.793 -86.4885 -103.056 0 -0 0 -11.337 -1.39723 -11.7825 30.6106 -9.00248 1.32378e-06 49.1183 7.28676 25.6447 -1.0058e-06 69.6035 -6.99098e-07 2.16213 6.84673 0.129402 -27.1073 15.0034 5.27348e-05 -41.3413 4.56753 9.37952 4.83496e-07 -62.6688 -7.94143e-07 7.63419 -2.29925 -0.153404 -0.0254058 -1.52434 -8.78492 -6.35494 -10.3023 -7.86208 -0 -0 45.1935 -2.24507e-05 -4.66572 32.6079 -2.5182 -2.57292e-05 -65.3145 -4.26144 -0.587112 -25.5311 -0 -0 23.8313 5.52005e-06 10.2206 -3.51824 -0.633894 4.80631e-06 -30.4492 
144.72 85.7 18.855 127.041 -86.6133 -107.477 0 -0 0 -11.0133 -1.56114 -11.829 30.5771 -9.0603 5.40177e-05 48.9274 7.09462 25.1868 -9.88063e-07 69.1636 -6.8115e-07 2.33475 6.85217 0.139797 -27.2873 15.0282 -7.81366e-05 -41.5988 4.05771 9.21095 0 -62.4991 0 7.73001 -2.2917 -0.154797 0.445998 -0.874099 -8.26003 -6.14981 -10.4593 -8.40484 -0 -0 46.0887 9.60014e-06 -6.43477 30.7168 -3.29724 1.96639e-06 -64.0015 -4.1458 -0.202887 -24.3705 -0 -0 23.2222 -1.00872e-05 10.2369 -3.52146 -0.635505 2.31567e-06 -30.7952 
